<svg id="svg_canvas" xmlns="http://www.w3.org/2000/svg" xmlns:xlink="http://www.w3.org/1999/xlink" data-draggable="true" data-long-touchable="true">
<g id="board_svg_markup"><path d="M137.7062624 332.52281999999997 A 206.0427688 206.0427688 0 0 1 323.14475432 138.22326
				H1627.85524568
				A 206.0427688 206.0427688 0 0 1 1813.2937376 332.52281999999997
				V801.4771800000001
				A 206.0427688 206.0427688 0 0 1 1627.85524568 995.77674
				H323.14475432
				A 206.0427688 206.0427688 0 0 1 137.7062624 801.4771800000001				
				V332.52281999999997" fill="none" stroke="#005FA5" stroke-linecap="round" stroke-linejoin="round" stroke-width="20"></path><path d="M137.7062624 332.52281999999997 A 206.0427688 206.0427688 0 0 1 323.14475432 138.22326
				H1627.85524568
				A 206.0427688 206.0427688 0 0 1 1813.2937376 332.52281999999997
				V801.4771800000001
				A 206.0427688 206.0427688 0 0 1 1627.85524568 995.77674
				H323.14475432
				A 206.0427688 206.0427688 0 0 1 137.7062624 801.4771800000001				
				V332.52281999999997" fill="#B6E5F9" stroke="none"></path><path data-role="board-markup" d="M253.49889279999996 159.22494 V974.7750599999999				

						M385.4684348 240.90696 V256.59018
						M454.09259664 240.90696 V256.59018
						M385.4684348 514.836 V530.21304
						M454.09259664 514.836 V530.21304
						M385.4684348 893.09304 V877.4098200000001
						M454.09259664 893.09304 V877.4098200000001
						M385.4684348 619.164 V603.78696
						M454.09259664 619.164 V603.78696

						M354.30659456 374.53752000000003 H393.47174895999996 V350.24724000000003
						M485.59500343999997 374.53752000000003 H446.25956576000004 V350.24724000000003
						M354.30659456 396.77526 H393.47174895999996 V420.147
						M485.59500343999997 396.77526 H446.25956576000004 V420.147
						M354.30659456 759.4624799999999 H393.47174895999996 V783.75276
						M485.59500343999997 759.4624799999999 H446.25956576000004 V783.75276
						M354.30659456 737.22474 H393.47174895999996 V713.8530000000001
						M485.59500343999997 737.22474 H446.25956576000004 V713.8530000000001

						M975.5 138.22326 V995.77674

						M1596.6934054399999 374.53752000000003 H1557.52825104 V350.24724000000003
						M1465.40499656 374.53752000000003 H1504.74043424 V350.24724000000003
						M1596.6934054399999 396.77526 H1557.52825104 V420.147
						M1465.40499656 396.77526 H1504.74043424 V420.147
						M1596.6934054399999 759.4624799999999 H1557.52825104 V783.75276
						M1465.40499656 759.4624799999999 H1504.74043424 V783.75276
						M1596.6934054399999 737.22474 H1557.52825104 V713.8530000000001
						M1465.40499656 737.22474 H1504.74043424 V713.8530000000001

						M1565.5315652 240.90696 V256.59018
						M1496.90740336 240.90696 V256.59018
						M1565.5315652 514.836 V530.21304
						M1496.90740336 514.836 V530.21304
						M1565.5315652 893.09304 V877.4098200000001
						M1496.90740336 893.09304 V877.4098200000001
						M1565.5315652 619.164 V603.78696
						M1496.90740336 619.164 V603.78696

										
						M1697.5011072 159.22494 V974.7750599999999

						M891.4119 995.77674 A 1 1 0 0 1 1059.5881 995.77674
						M975.5 567Z" fill="none" opacity=".40" stroke="#D62326" stroke-width="2"></path><path data-role="board-markup" d="M736.76284144 138.22326 V995.77674
						M1214.23715856 138.22326 V995.77674" fill="none" opacity=".40" stroke="#0093D9" stroke-width="2"></path><path data-role="board-markup" d="M253.49889279999996 518.11326 A 1 1 0 0 1 253.49889279999996 615.88674
						M1697.5011072 518.11326 A 1 1 0 0 0 1697.5011072 615.88674" fill="#0093D9" opacity=".40" stroke="#D62326" stroke-width="2"></path><circle data-role="board-markup" opacity=".40" cx="420.54679047999997" cy="384.68681999999995" r="131.969542" fill="none" stroke="#D62326" stroke-width="2"></circle><circle data-role="board-markup" opacity=".40" cx="420.54679047999997" cy="749.3131800000001" r="131.969542" fill="none" stroke="#D62326" stroke-width="2"></circle><circle data-role="board-markup" opacity=".40" cx="420.54679047999997" cy="384.68681999999995" r="11.901100000000001" fill="#D62326" stroke="none"></circle><circle data-role="board-markup" opacity=".40" cx="420.54679047999997" cy="749.3131800000001" r="11.901100000000001" fill="#D62326" stroke="none"></circle><circle data-role="board-markup" opacity=".40" cx="781.54734408" cy="384.68681999999995" r="11.901100000000001" fill="#D62326" stroke="none"></circle><circle data-role="board-markup" opacity=".40" cx="781.54734408" cy="749.3131800000001" r="11.901100000000001" fill="#D62326" stroke="none"></circle><circle data-role="board-markup" opacity=".40" cx="975.5" cy="567" r="131.969542" fill="none" stroke="#0093D9" stroke-width="2"></circle><circle data-role="board-markup" opacity=".40" cx="975.5" cy="567" r="5.61934824" fill="#0093D9" stroke="none"></circle><circle data-role="board-markup" opacity=".40" cx="1169.4526559199999" cy="384.68681999999995" r="11.901100000000001" fill="#D62326" stroke="none"></circle><circle data-role="board-markup" opacity=".40" cx="1169.4526559199999" cy="749.3131800000001" r="11.901100000000001" fill="#D62326" stroke="none"></circle><circle data-role="board-markup" opacity=".40" cx="1530.45320952" cy="384.68681999999995" r="131.969542" fill="none" stroke="#D62326" stroke-width="2"></circle><circle data-role="board-markup" opacity=".40" cx="1530.45320952" cy="749.3131800000001" r="131.969542" fill="none" stroke="#D62326" stroke-width="2"></circle><circle data-role="board-markup" opacity=".40" cx="1530.45320952" cy="384.68681999999995" r="11.901100000000001" fill="#D62326" stroke="none"></circle><circle data-role="board-markup" opacity=".40" cx="1530.45320952" cy="749.3131800000001" r="11.901100000000001" fill="#D62326" stroke="none"></circle><rect data-role="board-markup" opacity=".40" x="238.9975" y="538.65" width="14.8276" height="56.700000000000045" fill="url(#grid_4_blue)" stroke="#0093D9" stroke-width="2"></rect><rect data-role="board-markup" opacity=".40" x="1697.5011072" y="538.65" width="14.8276" height="56.700000000000045" fill="url(#grid_4_blue)" stroke="#0093D9" stroke-width="2"></rect></g>
</svg>