<svg xmlns:rdf="http://www.w3.org/1999/02/22-rdf-syntax-ns#" xmlns="http://www.w3.org/2000/svg" height="309.31" width="310.01" version="1.1" xmlns:cc="http://creativecommons.org/ns#" xmlns:xlink="http://www.w3.org/1999/xlink" xmlns:dc="http://purl.org/dc/elements/1.1/"> <defs>  <radialGradient id="radialGradient4517" gradientUnits="userSpaceOnUse" cx="-189.05" cy="155.99" r="87.727" gradientTransform="matrix(0.31075938,-1.1597698,1.2040767,0.32263138,-403.86007,-143.9275)">   <stop stop-color="#fffb26" stop-opacity="0.97163123" offset="0"/>   <stop stop-color="#fde01a" offset="0.5958"/>   <stop stop-color="#e1b401" offset="1"/>  </radialGradient>  <linearGradient id="linearGradient3986" y2="40.974" spreadMethod="reflect" gradientUnits="userSpaceOnUse" x2="-48.182" gradientTransform="matrix(11.032328,0,0,11.032328,620.16669,-348.68463)" y1="40.984" x1="-50.609">   <stop stop-color="#887362" offset="0"/>   <stop stop-color="#887362" stop-opacity="0" offset="1"/>  </linearGradient>  <linearGradient id="linearGradient4003" y2="40.974" spreadMethod="reflect" gradientUnits="userSpaceOnUse" y1="40.984" gradientTransform="matrix(7.8010339,-7.8010339,7.8010339,7.8010339,137.60854,-669.84992)" x2="-48.182" x1="-50.609">   <stop stop-color="#887362" offset="0"/>   <stop stop-color="#887362" stop-opacity="0" offset="1"/>  </linearGradient>  <linearGradient id="linearGradient5907" y2="40.974" spreadMethod="reflect" gradientUnits="userSpaceOnUse" y1="40.97" gradientTransform="matrix(-5.7303738,-7.8010339,-5.7303738,7.8010339,61.788188,-669.87024)" x2="-48.182" x1="-49.74">   <stop stop-color="#887362" offset="0"/>   <stop stop-color="#887362" stop-opacity="0" offset="1"/>  </linearGradient>  <linearGradient id="linearGradient5941" y2="40.974" spreadMethod="reflect" gradientUnits="userSpaceOnUse" y1="40.984" gradientTransform="matrix(5.1006725,-10.65641,10.054785,2.8553766,-52.954447,-583.12304)" x2="-48.182" x1="-50.609">   <stop stop-color="#887362" offset="0"/>   <stop stop-color="#887362" stop-opacity="0" offset="1"/>  </linearGradient> </defs> <metadata>  <rdf:RDF>   <cc:Work rdf:about="">    <dc:format>image/svg+xml</dc:format>    <dc:type rdf:resource="http://purl.org/dc/dcmitype/StillImage"/>    <dc:title/>   </cc:Work>  </rdf:RDF> </metadata> <path d="m-147.72,167.84a87.227,87.227,0,1,1,-174.45,0,87.227,87.227,0,1,1,174.45,0z" fill-rule="nonzero" transform="matrix(1.7081007,0,0,1.7081007,556.46415,-132.90378)" stroke-miterlimit="4" stroke-width="0" fill="url(#radialGradient4517)"/> <g transform="translate(183.08764,-778.14345)">  <path stroke-linejoin="miter" d="m-490-439.07a402.86,402.86,0,1,1,-805.71,0,402.86,402.86,0,1,1,805.71,0z" transform="matrix(0.36863304,0,0,0.36778232,301.05467,1094.2758)" stroke="#000" stroke-linecap="butt" stroke-miterlimit="4" stroke-dasharray="none" stroke-width="8.11227512" fill="none"/> </g> <g stroke-linejoin="miter" stroke="#000" stroke-linecap="butt" stroke-dasharray="none" stroke-miterlimit="4" stroke-width="2.98709416" transform="translate(183.08764,-778.14345)" fill="none">  <path d="m-61.352,924.1c-8.9523,19.926-15.605,39.536-19.418,60.376"/>  <path d="M-0.91731,922.74c8.6171,21.64,15.235,39.49,19.816,62.99"/>  <path d="m-142.96,885.46c19.871-6.7039,35.747-9.7177,52.894-10.058"/>  <path d="m-141,846.69c15.243-22.688,33.947-32.113,55.319-38.233"/>  <path d="m27.23,807.69c32.568,10.189,41.53,21.004,55.196,37.42"/>  <path d="m28.434,876.89c20.21-0.31066,36.032,1.2241,53.045,7.5337"/>  <path d="m100.12,941.69c-6.4275,18.648-14.206,35.459-35.141,51.803"/>  <path d="m66.915,1033.3c10.491,0.069,15.075-5.7271,23.984-11.667"/>  <path d="m18.202,1067.3c-0.48391,4.0358-0.44363,3.8482-1.716,7.2533"/>  <path d="m-76.679,1063.9c1.8812,5.006,3.434,7.7853,6.628,11.25"/>  <path d="m-126.66,1031.4c-8.0667-1.6395-12.186-4.325-20.092-9.3492"/>  <path d="m-160.23,940.29c7.6034,22.892,18.732,39.938,33.445,51.197"/>  <path d="m114.65,950.81c1.6388,6.3962,2.1116,6.1377,2.1534,14.587"/> </g> <g stroke-linejoin="miter" stroke="#000" stroke-linecap="butt" stroke-dasharray="none" stroke-miterlimit="4" stroke-width="2.98709416" transform="translate(183.08764,-778.14345)" fill="#043b7d">  <path d="m-93.569,875.67c9.3754,18.336,20.105,34.867,31.532,50.468,13.119-2.1891,37.694-1.6183,62.036-1.1139,10.858-15.5,22.171-33.1,30.504-48.33-3.702-12.77-9.904-26.14-29.194-48.17-22.805-3.7285-43.583-2.0968-62.984,0.86725-14.49,13.827-24.253,28.789-31.894,46.268z"/>  <path d="m-128.57,989.92c17.526,0.10152,32.946-3.5859,48.229-7.5213,17.124,18.598,35.051,29.469,49.493,35.847l1.5111,40.805c-9.9601,7.0559-26.041,8.9784-46.007,7.6424-22.911-6.1439-38.74-20.013-52.842-35.766-4.0902-18.308-2.8575-30.384-0.38435-41.008z"/>  <path d="m18.164,983.29c14.239,5.014,30.655,7.8522,49.919,7.8414,4.0647,13.894,5.6107,27.855,1.0282,41.977-15.614,18.669-32.392,31.128-50.746,35.181-17.235,2.0646-33.177-0.83-47.67-9.2753l-1.5209-40.872c18.707-7.8822,35.41-19.43,48.99-34.852z"/>  <path d="m81.032,843.53c5.0144,14.711,3.7713,27.77-0.78764,40.473,11.865,18.683,19.589,38.496,18.92,60.597,5.6684,1.8332,11.499,2.53,16.294,10.477,11.681-28.985-0.42868-80.293-23.918-109.2z"/>  <path d="m-88.676,809.54c11.729,4.4365,20.418,11.422,27.144,20.055,21.703-4.0828,42.622-4.4802,62.709-0.96941,6.5776-8.4268,17.129-14.494,28.84-19.873-3.662-6.6324-7.7683-13.981-18.401-18.395-25.409-7.1684-50.579-7.3131-74.639-1.1268-15.336,4.2901-20.29,12.537-25.652,20.31z"/>  <path d="m-140.35,884.75c-2.7295-11.726-4.6194-23.939,1.1996-40.615l-10.326,4.0617c-23.599,32.042-29.818,72.812-25.148,104.42,4.8086-5.573,9.9909-8.1566,15.252-10.111,0.53716-20.992,4.8402-40.853,19.022-57.752z"/> </g> <path d="m88.343,96.036c-18.538,0.90143-32.112,4.6971-44.552,8.5685,0,2.435,0.4106,1.616,0.4106,2.5885,17.822-5.0308,22.069-6.1348,43.958-8.7805z" fill-rule="evenodd" fill="url(#linearGradient3986)"/> <path d="M93.107,30.352c-7.546,1.509-36.864,12.395-49.495,34.401l1.771,1.1769c15.312-22.226,43.981-32.398,48.305-33.425z" fill-rule="evenodd" fill="url(#linearGradient4003)"/> <path d="m96.866,30.88c6.7153,3.2035,14.581,6.0452,24.977,19.001l-2.2788,0.9649c-12.97-14.757-21.954-15.985-24.883-18.087z" fill-rule="evenodd" fill="url(#linearGradient5907)"/> <path d="m126.15,45.521c-6.8512,5.0798-31.873,29.166-37.155,54.539l2.094,0.13374c7.819-26.9,32.441-50.044,36.311-53.095z" fill-rule="evenodd" fill="url(#linearGradient5941)"/></svg>