<?xml version="1.0" encoding="UTF-8"?>
<svg xmlns="http://www.w3.org/2000/svg" xmlns:xlink="http://www.w3.org/1999/xlink" width="77px" height="76px" viewBox="0 0 77 76" version="1.1">
<defs>
<radialGradient id="radial0" gradientUnits="userSpaceOnUse" cx="-189.050003" cy="155.990005" fx="-189.050003" fy="155.990005" r="87.726997" gradientTransform="matrix(0.131421,-0.48566,0.509206,0.135104,-32.896204,-92.73002)">
<stop offset="0" style="stop-color:rgb(100%,98.431373%,14.901961%);stop-opacity:0.972549;"/>
<stop offset="0.5958" style="stop-color:rgb(99.215686%,87.843138%,10.196079%);stop-opacity:1;"/>
<stop offset="1" style="stop-color:rgb(88.235295%,70.588237%,0.392157%);stop-opacity:1;"/>
</radialGradient>
<linearGradient id="linear0" gradientUnits="userSpaceOnUse" x1="-50.609001" y1="40.984001" x2="-48.181999" y2="40.973999" spreadMethod="reflect" gradientTransform="matrix(2.731448,0,0,2.704671,153.668692,-85.3601)">
<stop offset="0" style="stop-color:rgb(53.333336%,45.09804%,38.431373%);stop-opacity:1;"/>
<stop offset="1" style="stop-color:rgb(53.333336%,45.09804%,38.431373%);stop-opacity:0;"/>
</linearGradient>
<linearGradient id="linear1" gradientUnits="userSpaceOnUse" x1="-50.609001" y1="40.984001" x2="-48.181999" y2="40.973999" spreadMethod="reflect" gradientTransform="matrix(1.931426,-1.912491,1.931426,1.912491,34.194119,-164.096577)">
<stop offset="0" style="stop-color:rgb(53.333336%,45.09804%,38.431373%);stop-opacity:1;"/>
<stop offset="1" style="stop-color:rgb(53.333336%,45.09804%,38.431373%);stop-opacity:0;"/>
</linearGradient>
<linearGradient id="linear2" gradientUnits="userSpaceOnUse" x1="-49.740002" y1="40.970001" x2="-48.181999" y2="40.973999" spreadMethod="reflect" gradientTransform="matrix(-1.41876,-1.912491,-1.41876,1.912491,15.422074,-164.101555)">
<stop offset="0" style="stop-color:rgb(53.333336%,45.09804%,38.431373%);stop-opacity:1;"/>
<stop offset="1" style="stop-color:rgb(53.333336%,45.09804%,38.431373%);stop-opacity:0;"/>
</linearGradient>
<linearGradient id="linear3" gradientUnits="userSpaceOnUse" x1="-50.609001" y1="40.984001" x2="-48.181999" y2="40.973999" spreadMethod="reflect" gradientTransform="matrix(1.262854,-2.612512,2.489422,0.700021,-12.986578,-142.834724)">
<stop offset="0" style="stop-color:rgb(53.333336%,45.09804%,38.431373%);stop-opacity:1;"/>
<stop offset="1" style="stop-color:rgb(53.333336%,45.09804%,38.431373%);stop-opacity:0;"/>
</linearGradient>
</defs>
<g id="surface1">
<path style=" stroke:none;fill-rule:nonzero;fill:url(#radial0);" d="M 75.425781 37.824219 C 75.515625 50.933594 68.503906 63.082031 57.054688 69.664062 C 45.605469 76.246094 31.472656 76.246094 20.023438 69.664062 C 8.570312 63.082031 1.5625 50.933594 1.648438 37.824219 C 1.5625 24.714844 8.570312 12.566406 20.023438 5.984375 C 31.472656 -0.597656 45.605469 -0.597656 57.054688 5.984375 C 68.503906 12.566406 75.515625 24.714844 75.425781 37.824219 Z M 75.425781 37.824219 "/>
<path style="fill:none;stroke-width:8.112275;stroke-linecap:butt;stroke-linejoin:miter;stroke:rgb(0%,0%,0%);stroke-opacity:1;stroke-miterlimit:4;" d="M -489.998293 -439.087805 C -489.270702 -294.647993 -565.924612 -160.909031 -690.813563 -88.515832 C -815.788113 -16.079309 -969.909124 -16.079309 -1094.883674 -88.515832 C -1219.772625 -160.909031 -1296.426535 -294.647993 -1295.698943 -439.087805 C -1296.426535 -583.484294 -1219.772625 -717.223257 -1094.883674 -789.616456 C -969.909124 -862.052979 -815.788113 -862.052979 -690.813563 -789.616456 C -565.924612 -717.223257 -489.270702 -583.484294 -489.998293 -439.087805 Z M -489.998293 -439.087805 " transform="matrix(0.0912686,0,0,0.0901652,119.990981,77.625575)"/>
<path style="fill:none;stroke-width:2.987094;stroke-linecap:butt;stroke-linejoin:miter;stroke:rgb(0%,0%,0%);stroke-opacity:1;stroke-miterlimit:4;" d="M -61.346321 924.103386 C -70.307861 944.020337 -76.950128 963.634551 -80.768249 984.475648 " transform="matrix(0.247586,0,0,0.245159,45.454104,-190.645675)"/>
<path style="fill:none;stroke-width:2.987094;stroke-linecap:butt;stroke-linejoin:miter;stroke:rgb(0%,0%,0%);stroke-opacity:1;stroke-miterlimit:4;" d="M -0.919039 922.7331 C 7.695398 944.370876 14.321889 962.232397 18.897323 985.734399 " transform="matrix(0.247586,0,0,0.245159,45.454104,-190.645675)"/>
<path style="fill:none;stroke-width:2.987094;stroke-linecap:butt;stroke-linejoin:miter;stroke:rgb(0%,0%,0%);stroke-opacity:1;stroke-miterlimit:4;" d="M -142.962595 885.464502 C -123.083124 878.756473 -107.211101 875.74503 -90.061113 875.410425 " transform="matrix(0.247586,0,0,0.245159,45.454104,-190.645675)"/>
<path style="fill:none;stroke-width:2.987094;stroke-linecap:butt;stroke-linejoin:miter;stroke:rgb(0%,0%,0%);stroke-opacity:1;stroke-miterlimit:4;" d="M -141.006203 846.698149 C -125.765275 824.008758 -107.053328 814.57609 -85.675007 808.457603 " transform="matrix(0.247586,0,0,0.245159,45.454104,-190.645675)"/>
<path style="fill:none;stroke-width:2.987094;stroke-linecap:butt;stroke-linejoin:miter;stroke:rgb(0%,0%,0%);stroke-opacity:1;stroke-miterlimit:4;" d="M 27.227768 807.692792 C 59.792235 817.874337 68.753775 828.693225 82.432744 845.104792 " transform="matrix(0.247586,0,0,0.245159,45.454104,-190.645675)"/>
<path style="fill:none;stroke-width:2.987094;stroke-linecap:butt;stroke-linejoin:miter;stroke:rgb(0%,0%,0%);stroke-opacity:1;stroke-miterlimit:4;" d="M 28.442625 876.892246 C 48.637643 876.573575 64.462333 878.11913 81.486103 884.42882 " transform="matrix(0.247586,0,0,0.245159,45.454104,-190.645675)"/>
<path style="fill:none;stroke-width:2.987094;stroke-linecap:butt;stroke-linejoin:miter;stroke:rgb(0%,0%,0%);stroke-opacity:1;stroke-miterlimit:4;" d="M 100.119163 941.694037 C 93.697778 960.336304 85.91954 977.14621 64.982986 993.494043 " transform="matrix(0.247586,0,0,0.245159,45.454104,-190.645675)"/>
<path style="fill:none;stroke-width:2.987094;stroke-linecap:butt;stroke-linejoin:miter;stroke:rgb(0%,0%,0%);stroke-opacity:1;stroke-miterlimit:4;" d="M 66.907824 1033.296078 C 77.399767 1033.359812 81.990978 1027.57593 90.905186 1021.632712 " transform="matrix(0.247586,0,0,0.245159,45.454104,-190.645675)"/>
<path style="fill:none;stroke-width:2.987094;stroke-linecap:butt;stroke-linejoin:miter;stroke:rgb(0%,0%,0%);stroke-opacity:1;stroke-miterlimit:4;" d="M 18.203119 1067.298297 C 17.714021 1071.329487 17.761353 1071.138285 16.483387 1074.548067 " transform="matrix(0.247586,0,0,0.245159,45.454104,-190.645675)"/>
<path style="fill:none;stroke-width:2.987094;stroke-linecap:butt;stroke-linejoin:miter;stroke:rgb(0%,0%,0%);stroke-opacity:1;stroke-miterlimit:4;" d="M -76.681913 1063.888515 C -74.804408 1068.907586 -73.242449 1071.695959 -70.055423 1075.153542 " transform="matrix(0.247586,0,0,0.245159,45.454104,-190.645675)"/>
<path style="fill:none;stroke-width:2.987094;stroke-linecap:butt;stroke-linejoin:miter;stroke:rgb(0%,0%,0%);stroke-opacity:1;stroke-miterlimit:4;" d="M -126.664584 1031.399984 C -134.726814 1029.758828 -138.844705 1027.081989 -146.749161 1022.046984 " transform="matrix(0.247586,0,0,0.245159,45.454104,-190.645675)"/>
<path style="fill:none;stroke-width:2.987094;stroke-linecap:butt;stroke-linejoin:miter;stroke:rgb(0%,0%,0%);stroke-opacity:1;stroke-miterlimit:4;" d="M -160.223025 940.291884 C -152.634116 963.172477 -141.511078 980.221387 -126.790803 991.486415 " transform="matrix(0.247586,0,0,0.245159,45.454104,-190.645675)"/>
<path style="fill:none;stroke-width:2.987094;stroke-linecap:butt;stroke-linejoin:miter;stroke:rgb(0%,0%,0%);stroke-opacity:1;stroke-miterlimit:4;" d="M 114.65011 950.808034 C 116.290955 957.213326 116.764276 956.958389 116.795831 965.403176 " transform="matrix(0.247586,0,0,0.245159,45.454104,-190.645675)"/>
<path style="fill-rule:nonzero;fill:rgb(1.568628%,23.137255%,49.019608%);fill-opacity:1;stroke-width:2.987094;stroke-linecap:butt;stroke-linejoin:miter;stroke:rgb(0%,0%,0%);stroke-opacity:1;stroke-miterlimit:4;" d="M -93.579464 875.665362 C -84.191936 894.00489 -73.463332 910.543926 -62.040525 926.142882 C -48.913763 923.959984 -24.348416 924.517659 -0.00395236 925.027533 C 10.85087 909.524178 22.179013 891.917594 30.509458 876.701043 C 26.801779 863.922328 20.601277 850.55407 1.305568 828.533889 C -21.492714 824.789503 -42.271495 826.430659 -61.677646 829.394302 C -76.16126 843.224632 -85.927445 858.186246 -93.579464 875.665362 Z M -93.579464 875.665362 " transform="matrix(0.247586,0,0,0.245159,45.454104,-190.645675)"/>
<path style="fill-rule:nonzero;fill:rgb(1.568628%,23.137255%,49.019608%);fill-opacity:1;stroke-width:2.987094;stroke-linecap:butt;stroke-linejoin:miter;stroke:rgb(0%,0%,0%);stroke-opacity:1;stroke-miterlimit:4;" d="M -128.573644 989.924926 C -111.044999 990.020527 -95.630521 986.339875 -80.34226 982.404285 C -63.223827 1000.99875 -45.28497 1011.865439 -30.848688 1018.254797 L -29.334061 1059.044712 C -39.305352 1066.10328 -55.38248 1068.03124 -75.340838 1066.692821 C -98.249562 1060.542467 -114.09003 1046.680269 -128.194988 1030.921977 C -132.281324 1012.63025 -131.034912 1000.552611 -128.573644 989.924926 Z M -128.573644 989.924926 " transform="matrix(0.247586,0,0,0.245159,45.454104,-190.645675)"/>
<path style="fill-rule:nonzero;fill:rgb(1.568628%,23.137255%,49.019608%);fill-opacity:1;stroke-width:2.987094;stroke-linecap:butt;stroke-linejoin:miter;stroke:rgb(0%,0%,0%);stroke-opacity:1;stroke-miterlimit:4;" d="M 18.155787 983.296564 C 32.402741 988.299703 48.811194 991.15181 68.075348 991.135876 C 72.145907 1005.029941 73.692088 1018.98774 69.100877 1033.104875 C 53.497069 1051.779008 36.725738 1064.239053 18.360893 1068.286177 C 1.132017 1070.35754 -14.818892 1067.457632 -29.302507 1059.012845 L -30.817133 1018.143262 C -12.120963 1010.256149 4.587259 998.704318 18.155787 983.296564 Z M 18.155787 983.296564 " transform="matrix(0.247586,0,0,0.245159,45.454104,-190.645675)"/>
<path style="fill-rule:nonzero;fill:rgb(1.568628%,23.137255%,49.019608%);fill-opacity:1;stroke-width:2.987094;stroke-linecap:butt;stroke-linejoin:miter;stroke:rgb(0%,0%,0%);stroke-opacity:1;stroke-miterlimit:4;" d="M 81.028559 843.52737 C 86.045759 858.234046 84.799348 871.299566 80.239692 883.998614 C 92.104265 902.688681 99.83517 922.494097 99.156744 944.593946 C 104.836593 946.426305 110.658438 947.127382 115.454755 955.078228 C 127.13 926.095082 115.028766 874.789016 91.53628 845.885537 Z M 81.028559 843.52737 " transform="matrix(0.247586,0,0,0.245159,45.454104,-190.645675)"/>
<path style="fill-rule:nonzero;fill:rgb(1.568628%,23.137255%,49.019608%);fill-opacity:1;stroke-width:2.987094;stroke-linecap:butt;stroke-linejoin:miter;stroke:rgb(0%,0%,0%);stroke-opacity:1;stroke-miterlimit:4;" d="M -88.672706 809.541085 C -76.950128 813.986548 -68.256804 820.965448 -61.535649 829.585504 C -39.826004 825.522446 -18.905227 825.108174 1.17935 828.629491 C 7.758508 820.200637 18.297783 814.12995 30.02036 808.744407 C 26.360013 802.116046 22.242123 794.770674 11.623961 790.357078 C -13.793363 783.186976 -38.95825 783.043573 -63.034498 789.241729 C -78.370091 793.511923 -83.308404 801.765507 -88.672706 809.541085 Z M -88.672706 809.541085 " transform="matrix(0.247586,0,0,0.245159,45.454104,-190.645675)"/>
<path style="fill-rule:nonzero;fill:rgb(1.568628%,23.137255%,49.019608%);fill-opacity:1;stroke-width:2.987094;stroke-linecap:butt;stroke-linejoin:miter;stroke:rgb(0%,0%,0%);stroke-opacity:1;stroke-miterlimit:4;" d="M -140.359331 884.747491 C -143.073037 873.020391 -144.96632 860.815283 -139.144474 844.132845 L -149.478644 848.195903 C -173.065795 880.238294 -179.297851 921.012276 -174.627753 952.608527 C -169.815659 947.047714 -164.640685 944.466477 -159.371048 942.506649 C -158.834618 921.52215 -154.527399 901.652999 -140.359331 884.747491 Z M -140.359331 884.747491 " transform="matrix(0.247586,0,0,0.245159,45.454104,-190.645675)"/>
<path style=" stroke:none;fill-rule:evenodd;fill:url(#linear0);" d="M 21.996094 23.667969 C 17.40625 23.886719 14.046875 24.820312 10.964844 25.769531 C 10.964844 26.367188 11.070312 26.164062 11.070312 26.402344 C 15.480469 25.167969 16.53125 24.898438 21.949219 24.25 Z M 21.996094 23.667969 "/>
<path style=" stroke:none;fill-rule:evenodd;fill:url(#linear1);" d="M 23.175781 7.5625 C 21.308594 7.933594 14.046875 10.601562 10.921875 15.996094 L 11.359375 16.289062 C 15.152344 10.835938 22.25 8.34375 23.320312 8.089844 Z M 23.175781 7.5625 "/>
<path style=" stroke:none;fill-rule:evenodd;fill:url(#linear2);" d="M 24.109375 7.691406 C 25.769531 8.480469 27.714844 9.175781 30.292969 12.351562 L 29.726562 12.585938 C 26.515625 8.96875 24.292969 8.667969 23.566406 8.15625 Z M 24.109375 7.691406 "/>
<path style=" stroke:none;fill-rule:evenodd;fill:url(#linear3);" d="M 31.355469 11.285156 C 29.660156 12.527344 23.464844 18.433594 22.15625 24.652344 L 22.675781 24.683594 C 24.613281 18.089844 30.707031 12.417969 31.667969 11.667969 Z M 31.355469 11.285156 "/>
</g>
</svg>
