<?xml version="1.0" encoding="utf-8"?>
<!-- Generator: Adobe Illustrator 28.0.0, SVG Export Plug-In . SVG Version: 6.00 Build 0)  -->
<svg version="1.1" id="Capa_1" xmlns="http://www.w3.org/2000/svg" xmlns:xlink="http://www.w3.org/1999/xlink" x="0px" y="0px"
	 viewBox="0 0 4000 2000" style="enable-background:new 0 0 4000 2000;" xml:space="preserve">
<style type="text/css">
	.st0{fill:#208A44;}
	.st1{fill:#FFFFFF;}
</style>
<rect class="st0" width="4000" height="2000"/>
<path class="st1" d="M1996.16,1251.1c-141.46,0-256.55-115.09-256.55-256.55s115.09-256.55,256.55-256.55
	S2252.7,853.1,2252.7,994.56S2137.62,1251.1,1996.16,1251.1z M1996.16,765.66c-126.21,0-228.89,102.68-228.89,228.89
	c0,126.21,102.68,228.89,228.89,228.89s228.89-102.68,228.89-228.89C2225.05,868.34,2122.37,765.66,1996.16,765.66z"/>
<rect x="1982.33" class="st1" width="27.65" height="2000"/>
<rect x="1261.85" class="st1" width="27.65" height="2000"/>
<rect x="1188.11" y="188.05" class="st1" width="178.2" height="27.65"/>
<rect x="632.01" y="0.64" class="st1" width="27.65" height="115.21"/>
<rect x="632.01" y="1884.02" class="st1" width="27.65" height="115.21"/>
<rect y="1396.27" class="st1" width="111.37" height="27.65"/>
<rect y="1230.36" class="st1" width="111.37" height="27.65"/>
<rect y="738.78" class="st1" width="111.37" height="27.65"/>
<rect y="572.87" class="st1" width="111.37" height="27.65"/>
<rect x="1188.11" y="1788.77" class="st1" width="178.2" height="27.65"/>
<rect x="2707.74" y="0" class="st1" width="27.65" height="2000"/>
<rect x="2630.93" y="1784.16" class="st1" width="178.2" height="27.65"/>
<rect x="3337.58" y="1884.02" class="st1" width="27.65" height="115.21"/>
<rect x="3337.58" y="0.64" class="st1" width="27.65" height="115.21"/>
<rect x="2630.93" y="183.44" class="st1" width="178.2" height="27.65"/>
<rect x="1908.6" y="188.05" class="st1" width="178.2" height="27.65"/>
<rect x="1908.6" y="1788.77" class="st1" width="178.2" height="27.65"/>
<circle class="st1" cx="278.82" cy="997.63" r="19.97"/>
<rect x="3887.87" y="569.97" class="st1" width="112.13" height="27.84"/>
<rect x="3887.87" y="737.01" class="st1" width="112.13" height="27.84"/>
<rect x="3887.87" y="1231.93" class="st1" width="112.13" height="27.84"/>
<rect x="3887.87" y="1398.96" class="st1" width="112.13" height="27.84"/>
<path class="st1" d="M531.3,893.68c-2.86-125.32-47.87-247.25-126.76-343.32C325.6,454.21,215.78,387.65,95.3,362.92L0,343.37v29.29
	l89.53,18.38c114.06,23.41,218.06,86.46,292.84,177.53c74.84,91.14,117.54,206.83,120.25,325.77l2.3,101.14l-2.3,101.14
	c-2.71,118.94-45.41,234.63-120.25,325.77c-74.78,91.07-178.78,154.12-292.84,177.53L0,1618.29v29.29l95.3-19.56
	c120.48-24.73,230.3-91.29,309.24-187.43c78.89-96.07,123.9-218,126.76-343.32l2.31-101.23h0.02L531.3,893.68z"/>
<g>
	<path class="st1" d="M71.78,1816.78l-5.5-28.16l48.51-9.47c1.84-0.36,3.68-0.73,5.51-1.1l5.71,28.12c-1.9,0.39-3.81,0.77-5.72,1.14
		L71.78,1816.78z M180.63,1792.92l-7.8-27.61c17.29-4.89,34.58-10.49,51.41-16.65l9.87,26.94
		C216.6,1782.01,198.61,1787.84,180.63,1792.92z M286.12,1754.28l-11.89-26.11c16.36-7.45,32.61-15.61,48.3-24.26l13.85,25.12
		C320.06,1738.03,303.15,1746.52,286.12,1754.28z M384.56,1699.99l-15.74-23.98c15.01-9.85,29.81-20.41,43.99-31.37l17.55,22.69
		C415.6,1678.75,400.19,1689.74,384.56,1699.99z M473.5,1631.22l-19.26-21.27c13.3-12.04,26.29-24.76,38.6-37.79l20.85,19.71
		C500.87,1605.44,487.35,1618.68,473.5,1631.22z M550.7,1549.49l-22.34-18.01c11.27-13.98,22.1-28.56,32.21-43.34l23.69,16.19
		C573.73,1519.73,562.44,1534.93,550.7,1549.49z M614.14,1456.64l-24.9-14.25c8.91-15.57,17.29-31.68,24.91-47.88l25.96,12.21
		C632.17,1423.61,623.43,1440.41,614.14,1456.64z M661.99,1354.87l-26.86-10.07c6.29-16.78,11.97-34.02,16.88-51.24l27.59,7.86
		C674.47,1319.37,668.55,1337.36,661.99,1354.87z M692.78,1246.71l-28.14-5.58c3.48-17.56,6.29-35.49,8.33-53.3l28.5,3.27
		C699.34,1209.67,696.42,1228.39,692.78,1246.71z M705.62,1134.96l-28.67-0.95c0.07-2.06,0.13-4.13,0.18-6.2l1.17-48.8l28.68,0.68
		l-1.17,48.8C705.76,1130.65,705.7,1132.8,705.62,1134.96z"/>
	<polygon class="st1" points="708.3,1024.33 679.62,1023.65 680.24,997.63 679.62,971.61 708.3,970.93 708.96,998.36 708.92,998.36 
			"/>
	<path class="st1" d="M678.3,916.48l-1.17-49.03c-0.05-2-0.1-3.98-0.17-5.97l28.67-0.97c0.07,2.08,0.13,4.17,0.18,6.25l1.17,49.02
		L678.3,916.48z M673,807.66c-2.04-17.82-4.84-35.75-8.32-53.31l28.14-5.58c3.63,18.32,6.55,37.03,8.68,55.62L673,807.66z
		 M652.05,701.89c-4.9-17.24-10.58-34.48-16.87-51.26l26.87-10.07c6.56,17.51,12.48,35.5,17.6,53.48L652.05,701.89z M614.21,600.89
		c-7.61-16.2-15.99-32.31-24.9-47.89l24.9-14.25c9.3,16.25,18.03,33.05,25.97,49.93L614.21,600.89z M560.65,507.24
		c-10.1-14.78-20.93-29.37-32.19-43.35l22.34-18c11.74,14.57,23.03,29.76,33.55,45.17L560.65,507.24z M492.95,423.21
		c-12.3-13.02-25.28-25.74-38.58-37.79l19.26-21.26c13.86,12.55,27.38,25.79,40.18,39.35L492.95,423.21z M412.96,350.74
		c-14.17-10.96-28.97-21.52-43.97-31.37l15.75-23.98c15.61,10.26,31.01,21.24,45.77,32.66L412.96,350.74z M322.74,291.48
		c-15.68-8.65-31.92-16.82-48.25-24.26l11.9-26.11c17,7.75,33.89,16.24,50.21,25.25L322.74,291.48z M224.5,246.69
		c-16.82-6.17-34.12-11.78-51.41-16.67l7.81-27.61c17.98,5.09,35.97,10.92,53.47,17.34L224.5,246.69z M120.57,217.26
		c-1.93-0.39-3.86-0.78-5.8-1.16l-48.21-9.42l5.5-28.16l48.22,9.42c2.01,0.39,4.02,0.79,6.01,1.2L120.57,217.26z"/>
	<polygon class="st1" points="0,164.46 0,193.69 12.15,196.06 17.65,167.91 	"/>
	<polygon class="st1" points="0,1830.8 17.65,1827.36 12.15,1799.2 0,1801.57 	"/>
</g>
<circle class="st1" cx="3718.48" cy="997.63" r="19.97"/>
<path class="st1" d="M4000.08,1626.05l-88.48-18.16c-114.76-23.56-219.41-86.99-294.65-178.63c-75.3-91.7-118.27-208.12-121-327.8
	l-2.32-101.77l2.32-101.77c2.73-119.68,45.7-236.09,121-327.79c75.24-91.64,179.89-155.08,294.65-178.63l88.48-18.16v-29.47
	l-94.28,19.35c-121.23,24.88-231.73,91.86-311.16,188.59c-79.38,96.67-124.67,219.35-127.55,345.46l-2.32,101.85h-0.02l2.34,102.99
	c2.87,126.1,48.17,248.79,127.55,345.46c79.43,96.74,189.94,163.71,311.16,188.59l94.28,19.35V1626.05z"/>
<g>
	<path class="st1" d="M3319.19,917.93l-28.86-0.69l1.17-49.25c0.06-2.19,0.12-4.37,0.19-6.54l28.85,0.98
		c-0.07,2.08-0.13,4.17-0.18,6.26L3319.19,917.93z M3324.54,808.12l-28.68-3.3c2.14-18.73,5.09-37.62,8.75-56.13l28.32,5.63
		C3329.42,772.06,3326.6,790.16,3324.54,808.12z M3345.65,701.4l-27.77-7.93c5.15-18.13,11.11-36.28,17.71-53.95l27.03,10.17
		C3356.3,666.63,3350.59,684.03,3345.65,701.4z M3383.74,599.51l-26.12-12.33c7.99-17.04,16.79-33.99,26.14-50.38l25.05,14.38
		C3399.84,566.91,3391.4,583.17,3383.74,599.51z M3437.65,505.02l-23.83-16.34c10.59-15.55,21.95-30.88,33.76-45.58l22.48,18.17
		C3458.72,475.38,3447.82,490.1,3437.65,505.02z M3505.8,420.21l-20.98-19.88c12.9-13.69,26.5-27.05,40.45-39.72l19.38,21.46
		C3531.25,394.24,3518.18,407.07,3505.8,420.21z M3586.32,347.08l-17.65-22.91c14.87-11.53,30.37-22.62,46.08-32.96l15.84,24.2
		C3615.5,325.35,3600.61,336,3586.32,347.08z M3677.17,287.26l-13.94-25.35c16.44-9.09,33.45-17.67,50.57-25.49l11.96,26.35
		C3709.31,270.29,3692.96,278.52,3677.17,287.26z M3776.06,242.08l-9.92-27.19c17.62-6.47,35.72-12.35,53.81-17.48l7.85,27.86
		C3810.41,230.21,3793.01,235.86,3776.06,242.08z M3880.65,212.42l-5.75-28.37c1.92-0.39,3.84-0.78,5.77-1.15l48.8-9.56l5.53,28.42
		l-48.8,9.56C3884.34,211.67,3882.5,212.04,3880.65,212.42z"/>
	<polygon class="st1" points="3289,1027.01 3288.34,999.33 3288.37,999.33 3289,973.11 3317.86,973.81 3317.23,1000.06 
		3317.86,1026.31 	"/>
	<path class="st1" d="M3929.19,1826.73l-48.52-9.5c-2.02-0.39-4.04-0.8-6.06-1.21l5.78-28.37c1.93,0.4,3.87,0.78,5.8,1.16l48.54,9.5
		L3929.19,1826.73z M3819.66,1802.63c-18.1-5.14-36.2-11.03-53.8-17.5l9.94-27.18c16.92,6.22,34.32,11.88,51.73,16.82
		L3819.66,1802.63z M3713.53,1763.58c-17.11-7.82-34.1-16.39-50.52-25.48l13.95-25.35c15.78,8.73,32.11,16.97,48.55,24.49
		L3713.53,1763.58z M3614.57,1708.8c-15.69-10.34-31.18-21.43-46.05-32.96l17.66-22.9c14.28,11.08,29.17,21.73,44.24,31.66
		L3614.57,1708.8z M3525.14,1639.4c-13.92-12.65-27.53-26.01-40.44-39.72l20.99-19.88c12.39,13.16,25.46,25.99,38.83,38.14
		L3525.14,1639.4z M3447.48,1556.91c-11.8-14.69-23.16-30.03-33.76-45.59l23.84-16.33c10.17,14.93,21.07,29.65,32.4,43.75
		L3447.48,1556.91z M3383.67,1463.18c-9.35-16.4-18.14-33.35-26.13-50.39l26.12-12.32c7.66,16.34,16.09,32.61,25.06,48.33
		L3383.67,1463.18z M3335.54,1360.44c-6.6-17.66-12.56-35.82-17.71-53.98l27.77-7.92c4.94,17.4,10.65,34.81,16.97,51.74
		L3335.54,1360.44z M3304.57,1251.21c-3.66-18.51-6.59-37.4-8.73-56.13l28.68-3.29c2.05,17.96,4.86,36.06,8.37,53.8L3304.57,1251.21
		z M3291.69,1138.42c-0.07-2.09-0.13-4.18-0.18-6.28l-1.18-49.49l28.86-0.69l1.18,49.48c0.05,2.01,0.11,4.03,0.17,6.05
		L3291.69,1138.42z"/>
	<polygon class="st1" points="4000.08,1811.12 3989.47,1809.04 3983.94,1837.46 4000.08,1840.62 	"/>
	<polygon class="st1" points="4000.08,159.5 3983.94,162.67 3989.47,191.08 4000.08,189 	"/>
</g>
</svg>
