<?xml version="1.0" encoding="UTF-8"?>
<svg xmlns="http://www.w3.org/2000/svg" xmlns:xlink="http://www.w3.org/1999/xlink" width="225px" height="150px" viewBox="0 0 195 130" version="1.1">
<defs>
<linearGradient id="linear0" gradientUnits="userSpaceOnUse" x1="129.659698" y1="83.5597" x2="134.659393" y2="128.554703" gradientTransform="matrix(1,0,0,1,-0.000000000000000056,0)">
<stop offset="0" style="stop-color:rgb(65.098039%,12.156863%,15.686275%);stop-opacity:1;"/>
<stop offset="1" style="stop-color:rgb(48.235294%,13.72549%,15.294118%);stop-opacity:1;"/>
</linearGradient>
</defs>
<g id="surface1">
<path style="fill-rule:nonzero;fill:url(#linear0);stroke-width:7.6849;stroke-linecap:butt;stroke-linejoin:miter;stroke:rgb(0.392157%,0%,0%);stroke-opacity:1;stroke-miterlimit:10;" d="M 153.898879 161.499586 C 213.499907 142.497489 253.702019 94.901066 255.80061 46.601248 C 226.101893 8.498059 165.702148 -6.997482 106.200308 11.999405 C 46.59928 31.001501 6.402389 78.597924 4.298577 126.798746 C 33.898107 164.901935 94.297852 180.501682 153.898879 161.499586 Z M 153.898879 161.499586 " transform="matrix(0.74827,0,0,0.749712,0.22491,0)"/>
<path style="fill:none;stroke-width:7.6849;stroke-linecap:butt;stroke-linejoin:miter;stroke:rgb(0.392157%,0%,0%);stroke-opacity:1;stroke-miterlimit:10;" d="M 144.799765 132.999046 C 204.400792 114.002159 248.398117 78.399931 255.80061 46.601248 C 231.400574 24.900197 174.90045 21.398851 115.299422 40.400948 C 55.698395 59.397834 11.601883 95.000063 4.298577 126.798746 C 28.698613 148.499796 85.198737 152.001142 144.799765 132.999046 Z M 144.799765 132.999046 " transform="matrix(0.74827,0,0,0.749712,0.22491,0)"/>
<path style=" stroke:none;fill-rule:nonzero;fill:rgb(100%,100%,100%);fill-opacity:1;" d="M 22.074219 46.855469 C 28.734375 57.277344 34.269531 69.046875 38.386719 81.792969 C 42.800781 95.589844 45.046875 109.308594 45.421875 122.578125 L 54.699219 125.578125 L 67.644531 126.851562 C 68.617188 110.207031 66.445312 92.4375 60.761719 74.671875 C 55.523438 58.175781 47.738281 43.410156 38.386719 30.886719 Z M 22.074219 46.855469 "/>
<path style=" stroke:none;fill-rule:nonzero;fill:rgb(100%,100%,100%);fill-opacity:1;" d="M 148.234375 5.699219 C 148.832031 18.066406 151.074219 30.886719 155.191406 43.632812 C 159.605469 57.429688 165.667969 69.949219 173 80.96875 L 157.363281 97.3125 C 146.960938 84.269531 138.429688 68.523438 132.816406 50.753906 C 127.582031 34.261719 125.335938 17.691406 125.785156 2.097656 Z M 148.234375 5.699219 "/>
<path style="fill:none;stroke-width:5.9783;stroke-linecap:round;stroke-linejoin:round;stroke:rgb(100%,100%,100%);stroke-opacity:1;stroke-miterlimit:10;" d="M 80.302025 53.90093 C 80.302025 53.90093 119.799386 34.997829 156.702221 30.298106 " transform="matrix(0.74827,0,0,0.749712,0.22491,0)"/>
<path style=" stroke:none;fill-rule:nonzero;fill:rgb(100%,100%,100%);fill-opacity:1;" d="M 66.445312 48.355469 C 66.222656 48.355469 65.921875 48.28125 65.699219 48.207031 C 64.875 47.832031 64.5 46.78125 64.875 45.957031 C 66.371094 42.882812 66.597656 40.410156 65.625 38.609375 C 64.050781 35.761719 59.710938 35.160156 59.636719 35.160156 C 58.738281 35.085938 58.066406 34.1875 58.140625 33.289062 C 58.214844 32.386719 59.039062 31.710938 60.011719 31.789062 C 60.234375 31.789062 66.074219 32.539062 68.542969 36.960938 C 70.113281 39.734375 69.890625 43.257812 67.941406 47.382812 C 67.644531 48.054688 67.046875 48.355469 66.445312 48.355469 Z M 66.445312 48.355469 "/>
<path style=" stroke:none;fill-rule:nonzero;fill:rgb(100%,100%,100%);fill-opacity:1;" d="M 74.078125 45.957031 C 73.855469 45.957031 73.554688 45.882812 73.332031 45.808594 C 72.507812 45.433594 72.132812 44.382812 72.507812 43.558594 C 74.003906 40.484375 74.230469 38.011719 73.257812 36.210938 C 71.683594 33.363281 67.34375 32.761719 67.269531 32.761719 C 66.371094 32.6875 65.699219 31.789062 65.773438 30.886719 C 65.847656 29.988281 66.671875 29.3125 67.644531 29.390625 C 67.867188 29.390625 73.703125 30.136719 76.175781 34.5625 C 77.746094 37.335938 77.519531 40.859375 75.574219 44.984375 C 75.277344 45.582031 74.679688 45.957031 74.078125 45.957031 Z M 74.078125 45.957031 "/>
<path style=" stroke:none;fill-rule:nonzero;fill:rgb(100%,100%,100%);fill-opacity:1;" d="M 81.710938 43.484375 C 81.488281 43.484375 81.1875 43.410156 80.964844 43.332031 C 80.140625 42.957031 79.765625 41.910156 80.140625 41.085938 C 81.636719 38.011719 81.859375 35.535156 80.886719 33.738281 C 79.316406 30.886719 74.976562 30.289062 74.902344 30.289062 C 74.003906 30.214844 73.332031 29.3125 73.40625 28.414062 C 73.480469 27.515625 74.304688 26.839844 75.277344 26.914062 C 75.5 26.914062 81.335938 27.664062 83.808594 32.085938 C 85.378906 34.863281 85.152344 38.386719 83.207031 42.507812 C 82.910156 43.183594 82.308594 43.484375 81.710938 43.484375 Z M 81.710938 43.484375 "/>
<path style=" stroke:none;fill-rule:nonzero;fill:rgb(100%,100%,100%);fill-opacity:1;" d="M 89.34375 41.085938 C 89.121094 41.085938 88.820312 41.007812 88.59375 40.933594 C 87.773438 40.558594 87.398438 39.511719 87.773438 38.683594 C 89.269531 35.609375 89.492188 33.136719 88.519531 31.339844 C 86.949219 28.488281 82.609375 27.890625 82.535156 27.890625 C 81.636719 27.8125 80.964844 26.914062 81.039062 26.015625 C 81.113281 25.117188 81.9375 24.441406 82.910156 24.515625 C 83.132812 24.515625 88.96875 25.265625 91.4375 29.6875 C 93.011719 32.460938 92.785156 35.984375 90.839844 40.109375 C 90.542969 40.710938 89.941406 41.085938 89.34375 41.085938 Z M 89.34375 41.085938 "/>
<path style=" stroke:none;fill-rule:nonzero;fill:rgb(100%,100%,100%);fill-opacity:1;" d="M 96.976562 38.609375 C 96.75 38.609375 96.453125 38.535156 96.226562 38.460938 C 95.40625 38.085938 95.03125 37.035156 95.40625 36.210938 C 96.902344 33.136719 97.125 30.664062 96.152344 28.863281 C 94.582031 26.015625 90.242188 25.414062 90.167969 25.414062 C 89.269531 25.339844 88.59375 24.441406 88.671875 23.539062 C 88.746094 22.640625 89.566406 21.964844 90.542969 22.042969 C 90.765625 22.042969 96.601562 22.792969 99.070312 27.214844 C 100.644531 29.988281 100.417969 33.511719 98.472656 37.636719 C 98.171875 38.308594 97.574219 38.609375 96.976562 38.609375 Z M 96.976562 38.609375 "/>
<path style=" stroke:none;fill-rule:nonzero;fill:rgb(100%,100%,100%);fill-opacity:1;" d="M 104.609375 36.210938 C 104.382812 36.210938 104.085938 36.136719 103.859375 36.0625 C 103.039062 35.6875 102.664062 34.636719 103.039062 33.8125 C 104.535156 30.738281 104.757812 28.265625 103.785156 26.464844 C 102.214844 23.617188 97.875 23.015625 97.800781 23.015625 C 96.902344 22.941406 96.226562 22.042969 96.304688 21.140625 C 96.378906 20.242188 97.199219 19.566406 98.171875 19.640625 C 98.398438 19.640625 104.234375 20.390625 106.703125 24.816406 C 108.273438 27.589844 108.050781 31.113281 106.105469 35.238281 C 105.878906 35.835938 105.28125 36.210938 104.609375 36.210938 Z M 104.609375 36.210938 "/>
<path style=" stroke:none;fill-rule:nonzero;fill:rgb(100%,100%,100%);fill-opacity:1;" d="M 112.242188 33.738281 C 112.015625 33.738281 111.71875 33.660156 111.492188 33.585938 C 110.667969 33.210938 110.296875 32.164062 110.667969 31.339844 C 112.167969 28.265625 112.390625 25.789062 111.417969 23.992188 C 109.847656 21.140625 105.507812 20.542969 105.433594 20.542969 C 104.535156 20.46875 103.859375 19.566406 103.933594 18.667969 C 104.011719 17.769531 104.832031 17.09375 105.804688 17.167969 C 106.03125 17.167969 111.867188 17.917969 114.335938 22.339844 C 115.90625 25.117188 115.683594 28.640625 113.738281 32.761719 C 113.511719 33.363281 112.914062 33.738281 112.242188 33.738281 Z M 112.242188 33.738281 "/>
</g>
</svg>
