<svg version="1.2" xmlns="http://www.w3.org/2000/svg" viewBox="0 0 938 606" width="938" height="606">
	<title>footbal_field</title>
	<style>
		.s0 { fill: #477e19 } 
		.s1 { opacity: .26;fill: #007a00 } 
		.s2 { fill: none;stroke: #fffffa;stroke-width: 2 } 
		.s3 { fill: #ffffff } 
		.s4 { fill: #ffffff;stroke: #ffffff;stroke-width: 2 } 
	</style>
	<g id="layer1">
		<g id="g6525">
			<g id="g6506">
				<path id="rect6422" fill-rule="evenodd" class="s0" d="m-31-14h1000v634.1h-1000z"/>
				<path id="rect6424" fill-rule="evenodd" class="s1" d="m-31-14h50v634.1h-50z"/>
				<path id="rect6426" fill-rule="evenodd" class="s1" d="m69-14h50v634.1h-50z"/>
				<path id="rect6428" fill-rule="evenodd" class="s1" d="m169-14h50v634.1h-50z"/>
				<path id="rect6430" fill-rule="evenodd" class="s1" d="m269-14h50v634.1h-50z"/>
				<path id="rect6432" fill-rule="evenodd" class="s1" d="m369-14h50v634.1h-50z"/>
				<path id="rect6434" fill-rule="evenodd" class="s1" d="m469-14h50v634.1h-50z"/>
				<path id="rect6436" fill-rule="evenodd" class="s1" d="m569-14h50v634.1h-50z"/>
				<path id="rect6438" fill-rule="evenodd" class="s1" d="m669-14h50v634.1h-50z"/>
				<path id="rect6440" fill-rule="evenodd" class="s1" d="m769-14h50v634.1h-50z"/>
				<path id="rect6442" fill-rule="evenodd" class="s1" d="m869-14h50v634.1h-50z"/>
				<path id="rect6448" fill-rule="evenodd" class="s1" d="m-31 567.3h1000v52.8h-1000z"/>
				<path id="rect6450" fill-rule="evenodd" class="s1" d="m-31 461.6h1000v52.9h-1000z"/>
				<path id="rect6452" fill-rule="evenodd" class="s1" d="m-31 355.9h1000v52.9h-1000z"/>
				<path id="rect6454" fill-rule="evenodd" class="s1" d="m-31 250.2h1000v52.9h-1000z"/>
				<path id="rect6456" fill-rule="evenodd" class="s1" d="m-31 144.5h1000v52.9h-1000z"/>
				<path id="rect6458" fill-rule="evenodd" class="s1" d="m-31 38.8h1000v52.9h-1000z"/>
			</g>
			<g id="g6478">
				<path id="path6340" class="s2" d="m1.5 2.3h935v601.6h-935z"/>
				<path id="path6344" class="s2" d="m550.3 303.1c0 10.6-2.1 21.2-6.2 31.1-4.1 9.8-10.1 18.8-17.6 26.4-7.6 7.5-16.5 13.5-26.4 17.6-9.9 4.1-20.4 6.2-31.1 6.2-10.7 0-21.2-2.1-31.1-6.2-9.9-4.1-18.8-10.1-26.4-17.6-7.5-7.6-13.5-16.6-17.6-26.4-4.1-9.9-6.2-20.5-6.2-31.1 0-10.7 2.1-21.3 6.2-31.1 4.1-9.9 10.1-18.9 17.6-26.4 7.6-7.6 16.5-13.6 26.4-17.6 9.9-4.1 20.4-6.2 31.1-6.2 10.7 0 21.2 2.1 31.1 6.2 9.9 4 18.8 10 26.4 17.6 7.5 7.5 13.5 16.5 17.6 26.4 4.1 9.8 6.2 20.4 6.2 31.1z"/>
				<path id="rect6347" fill-rule="evenodd" class="s2" d="m1.5 124.2h146.4v357.7h-146.4z"/>
				<path id="rect6349" fill-rule="evenodd" class="s2" d="m790.1 124.2h146.4v357.7h-146.4z"/>
				<path id="rect6351" fill-rule="evenodd" class="s2" d="m1.5 221.8h48.8v162.6h-48.8z"/>
				<path id="rect6362" fill-rule="evenodd" class="s2" d="m887.7 221.8h48.8v162.6h-48.8z"/>
				<path id="rect6364" fill-rule="evenodd" class="s2" d="m-22.9 270.6h24.4v65h-24.4z"/>
				<path id="rect6366" fill-rule="evenodd" class="s2" d="m936.5 270.6h24.4v65h-24.4z"/>
				<path id="path6368" class="s2" d="m790.1 238.1c-5 3.8-9.6 8.1-13.6 13-4 4.8-7.5 10.1-10.3 15.7-2.8 5.6-4.9 11.5-6.4 17.6-1.4 6.1-2.2 12.4-2.2 18.7 0 6.3 0.8 12.5 2.2 18.6 1.5 6.1 3.6 12 6.4 17.7 2.8 5.6 6.3 10.8 10.3 15.7 4 4.8 8.6 9.1 13.6 12.9z"/>
				<path id="path6370" fill-rule="evenodd" class="s2" d="m838.9 306.1c-1.7 0-3-1.3-3-3 0-1.7 1.3-3.1 3-3.1 1.7 0 3.1 1.4 3.1 3.1 0 1.7-1.4 3-3.1 3z"/>
				<path id="circle6372" fill-rule="evenodd" class="s2" d="m99.1 306.1c-1.7 0-3.1-1.3-3.1-3 0-1.7 1.4-3.1 3.1-3.1 1.7 0 3 1.4 3 3.1 0 1.7-1.3 3-3 3z"/>
				<path id="path6376" class="s2" d="m147.9 238.2v129.8c5-3.8 9.6-8.1 13.6-12.9 4-4.8 7.5-10.1 10.3-15.7 2.8-5.6 4.9-11.6 6.4-17.7 1.4-6.1 2.2-12.3 2.2-18.6 0-6.3-0.8-12.6-2.2-18.7-1.5-6.1-3.6-12-6.4-17.6-2.8-5.6-6.3-10.9-10.3-15.7-4-4.8-8.6-9.2-13.6-12.9z"/>
				<path id="path6386" class="s2" d="m1.5 595.8v8.1h8.2q-0.1-1.6-0.7-3.1-0.6-1.5-1.7-2.7-1.2-1.1-2.7-1.7-1.5-0.6-3.1-0.6z"/>
				<path id="circle6388" class="s2" d="m1.5 2.3v8.1q1.6 0 3.1-0.6 1.5-0.7 2.7-1.8 1.1-1.1 1.7-2.6 0.6-1.5 0.7-3.1z"/>
				<path id="circle6390" class="s2" d="m936.5 595.8q-1.6 0-3.1 0.6-1.5 0.6-2.7 1.7-1.1 1.2-1.7 2.7-0.6 1.5-0.7 3.1h8.2z"/>
				<path id="circle6392" class="s2" d="m928.3 2.3q0.1 1.6 0.7 3.1 0.6 1.5 1.7 2.6 1.2 1.1 2.7 1.8 1.5 0.6 3.1 0.6v-8.1z"/>
				<path id="circle6374" fill-rule="evenodd" class="s2" d="m469 306.1c-1.7 0-3-1.3-3-3 0-1.7 1.3-3.1 3-3.1 1.7 0 3 1.4 3 3.1 0 1.7-1.3 3-3 3z"/>
				<path id="rect6415" class="s3" d="m468 2.3v297.9q0.1 0 0.2-0.1 0.2 0 0.3 0 0.1-0.1 0.2-0.1 0.2 0 0.3 0 0.1 0 0.3 0 0.1 0 0.2 0.1 0.1 0 0.3 0 0.1 0.1 0.2 0.1v-297.9zm0 303.6v298h2v-298q-0.1 0.1-0.2 0.1-0.1 0.1-0.3 0.1-0.1 0-0.2 0-0.1 0-0.3 0-0.1 0-0.2 0-0.2 0-0.3 0-0.1 0-0.2-0.1-0.2 0-0.3-0.1z"/>
				<path id="path6462" fill-rule="evenodd" class="s4" d="m855.2-1.8v4.1"/>
				<path id="path6464" fill-rule="evenodd" class="s4" d="m82.8-1.8v4.1"/>
				<path id="path6466" fill-rule="evenodd" class="s4" d="m855.2 603.9v4.1"/>
				<path id="path6468" fill-rule="evenodd" class="s4" d="m82.8 603.9v4.1"/>
				<path id="path6470" fill-rule="evenodd" class="s4" d="m940.5 522.6h-4"/>
				<path id="path6472" fill-rule="evenodd" class="s4" d="m1.5 522.6h-4"/>
				<path id="path6474" fill-rule="evenodd" class="s4" d="m940.5 83.6h-4"/>
				<path id="path6476" fill-rule="evenodd" class="s4" d="m1.5 83.6h-4"/>
			</g>
		</g>
	</g>
</svg>