<?xml version="1.0" encoding="utf-8"?>
<!-- Generator: Adobe Illustrator 28.0.0, SVG Export Plug-In . SVG Version: 6.00 Build 0)  -->
<svg version="1.1" id="Capa_1" xmlns="http://www.w3.org/2000/svg" xmlns:xlink="http://www.w3.org/1999/xlink" x="0px" y="0px"
	 viewBox="0 0 4000 2000" style="enable-background:new 0 0 4000 2000;" xml:space="preserve">
<style type="text/css">
	.st0{fill:#208A44;}
	.st1{fill:#FFFFFF;}
</style>
<rect class="st0" width="4000" height="2000"/>
<g>
	<path class="st1" d="M2176.56,821.7c-44.11-46.72-103.41-74.33-166.97-77.74l-7.1-0.38V202.22h76.81v-12.75h-76.81V0h-12.65v189.47
		h-73.74v12.75h73.74v541.35l-7.1,0.38c-63.56,3.42-122.86,31.03-166.97,77.74c-44.27,46.88-68.65,108.26-68.65,172.82
		s24.38,125.93,68.65,172.82c44.11,46.72,103.41,74.32,166.97,77.74l7.1,0.38v556.83h-73.74v12.75h73.74V2000h12.65v-184.96h76.81
		v-12.75h-76.81v-556.83l7.1-0.38c63.56-3.42,122.86-31.03,166.97-77.74c44.27-46.88,68.65-108.26,68.65-172.82
		S2220.83,868.58,2176.56,821.7z M1989.83,1232.73l-7.95-0.48c-124.55-7.51-222.12-111.94-222.12-237.73s97.57-230.22,222.12-237.73
		l7.95-0.48V1232.73z M2010.43,1232.25l-7.95,0.48V756.3l7.95,0.48c124.55,7.51,222.12,111.94,222.12,237.73
		S2134.99,1224.74,2010.43,1232.25z"/>
	<polygon class="st1" points="1358.81,1802.29 1282,1802.29 1282,202.22 1358.81,202.22 1358.81,189.47 1282,189.47 1282,0 
		1269.35,0 1269.35,189.47 1195.61,189.47 1195.61,202.22 1269.35,202.22 1269.35,1802.29 1195.61,1802.29 1195.61,1815.04 
		1269.35,1815.04 1269.35,2000 1282,2000 1282,1815.04 1358.81,1815.04 	"/>
	<rect x="639.51" class="st1" width="12.65" height="100.21"/>
	<rect x="639.51" y="1899.78" class="st1" width="12.65" height="100.22"/>
	<rect x="7.5" y="1403.77" class="st1" width="96.37" height="12.65"/>
	<rect x="0.04" y="1237.9" class="st1" width="96.37" height="12.65"/>
	<rect x="0.04" y="746.31" class="st1" width="96.37" height="12.65"/>
	<rect x="0.04" y="580.4" class="st1" width="96.37" height="12.65"/>
	<polygon class="st1" points="2801.63,1797.65 2727.89,1797.65 2727.89,197.58 2801.63,197.58 2801.63,184.83 2727.89,184.83 
		2727.89,0 2715.24,0 2715.24,184.83 2638.43,184.83 2638.43,197.58 2715.24,197.58 2715.24,1797.65 2638.43,1797.65 
		2638.43,1810.39 2715.24,1810.39 2715.24,2000 2727.89,2000 2727.89,1810.39 2801.63,1810.39 	"/>
	<rect x="3345.08" y="1899.78" class="st1" width="12.65" height="100.22"/>
	<rect x="3345.08" class="st1" width="12.65" height="100.21"/>
	<path class="st1" d="M283.83,997.66c0-6.88-5.59-12.47-12.47-12.47c-6.88,0-12.47,5.59-12.47,12.47s5.59,12.47,12.47,12.47
		C278.23,1010.13,283.83,1004.54,283.83,997.66z"/>
	<rect x="3902.87" y="577.47" class="st1" width="97.13" height="12.84"/>
	<rect x="3902.87" y="744.51" class="st1" width="97.13" height="12.84"/>
	<rect x="3902.87" y="1239.43" class="st1" width="97.13" height="12.84"/>
	<rect x="3902.87" y="1406.46" class="st1" width="97.13" height="12.84"/>
	<path class="st1" d="M391.29,1435.86c77.83-94.78,122.24-215.08,125.06-338.74l2.31-101.53l-2.31-101.71
		c-2.82-123.66-47.23-243.95-125.06-338.74C313.43,460.33,205.13,394.68,86.33,370.3L0.04,352.59v13.98l83.54,17.15
		c115.74,23.75,221.26,87.72,297.13,180.12c75.9,92.43,119.2,209.75,121.95,330.36l2.31,101.31l-2.31,101.31
		c-2.75,120.61-46.06,237.93-121.95,330.36c-75.87,92.39-181.39,156.36-297.13,180.12l-83.54,17.15v13.98l86.29-17.71
		C205.13,1596.32,313.43,1530.67,391.29,1435.86z"/>
	<path class="st1" d="M464.81,1610.45l9.19,10.15c9.93-9.19,19.67-18.72,29.07-28.46l-9.95-9.4
		C483.95,1592.22,474.47,1601.5,464.81,1610.45z"/>
	<polygon class="st1" points="75.08,1794.55 77.7,1807.99 117.16,1800.28 114.43,1786.86 	"/>
	<path class="st1" d="M679.53,1196.12c-1.65,13.06-3.7,26.16-6.11,39.1l13.43,2.67c2.48-13.29,4.59-26.76,6.28-40.2L679.53,1196.12z
		"/>
	<path class="st1" d="M182.07,1770.45l3.72,13.17c12.97-3.81,25.93-8.01,38.67-12.52l-4.71-12.86
		C207.36,1762.64,194.74,1766.73,182.07,1770.45z"/>
	<path class="st1" d="M562.5,1498.54c-7.54,10.78-15.45,21.42-23.62,31.78l10.66,8.59c8.38-10.63,16.51-21.57,24.26-32.65
		L562.5,1498.54z"/>
	<path class="st1" d="M617.7,1404.47c-5.73,11.84-11.85,23.6-18.27,35.12l11.88,6.8c6.6-11.83,12.89-23.92,18.78-36.09
		L617.7,1404.47z"/>
	<path class="st1" d="M284.15,1731.85l5.67,12.46c12.28-5.75,24.46-11.86,36.35-18.26l-6.61-11.99
		C307.96,1720.3,296.09,1726.26,284.15,1731.85z"/>
	<path class="st1" d="M379.18,1678.13l7.51,11.44c11.25-7.55,22.34-15.46,33.12-23.62l-8.38-10.83
		C400.93,1663.07,390.13,1670.77,379.18,1678.13z"/>
	<path class="st1" d="M657.12,1302.81c-3.75,12.61-7.89,25.2-12.38,37.58l12.82,4.81c4.61-12.73,8.88-25.67,12.73-38.64
		L657.12,1302.81z"/>
	<polygon class="st1" points="685.62,1086.68 684.66,1126.76 698.34,1127.21 699.3,1087.01 	"/>
	<polygon class="st1" points="700.98,1016.65 701.44,997.71 700.98,978.6 687.3,978.93 687.75,997.63 687.3,1016.33 	"/>
	<path class="st1" d="M474.12,374.78l-9.19,10.15c9.67,8.95,19.15,18.23,28.29,27.71l9.95-9.4
		C493.8,393.51,484.06,383.98,474.12,374.78z"/>
	<path class="st1" d="M220.03,237.11l4.71-12.85c-12.74-4.52-25.69-8.72-38.67-12.54l-3.73,13.17
		C195.01,228.61,207.63,232.71,220.03,237.11z"/>
	<path class="st1" d="M411.59,340.25l8.38-10.83c-10.77-8.15-21.85-16.06-33.09-23.61l-7.52,11.44
		C390.29,324.6,401.09,332.31,411.59,340.25z"/>
	<path class="st1" d="M319.78,281.32l6.61-11.99c-11.9-6.4-24.06-12.52-36.31-18.26l-5.68,12.46
		C296.35,269.13,308.19,275.09,319.78,281.32z"/>
	<path class="st1" d="M693.16,797.8c-1.69-13.44-3.79-26.9-6.27-40.2l-13.43,2.66c2.41,12.94,4.45,26.03,6.1,39.1L693.16,797.8z"/>
	<polygon class="st1" points="685.62,908.8 699.31,908.47 698.34,868.27 684.66,868.73 	"/>
	<path class="st1" d="M670.34,688.88c-3.85-12.98-8.11-25.93-12.72-38.66l-12.82,4.81c4.48,12.39,8.63,24.98,12.37,37.6
		L670.34,688.88z"/>
	<polygon class="st1" points="114.71,208.45 117.45,195.04 77.99,187.33 75.36,200.77 	"/>
	<path class="st1" d="M630.16,585.1c-5.89-12.18-12.18-24.27-18.77-36.1l-11.88,6.8c6.42,11.52,12.54,23.28,18.27,35.12
		L630.16,585.1z"/>
	<path class="st1" d="M566.42,489.15c-7.74-11.08-15.87-22.02-24.25-32.66l-10.66,8.59c8.16,10.35,16.06,21,23.61,31.79
		L566.42,489.15z"/>
	<circle class="st1" cx="3725.98" cy="997.63" r="12.47"/>
	<path class="st1" d="M4000.09,353.07l-85.27,17.5c-119.55,24.54-228.53,90.59-306.88,186h0
		c-78.32,95.38-123.01,216.43-125.84,340.87l-2.33,102.17l2.33,102.33c2.83,124.43,47.53,245.49,125.84,340.87
		c78.34,95.41,187.33,161.47,306.88,186l85.27,17.5v-14.16l-82.48-16.93c-116.44-23.9-222.61-88.26-298.94-181.22
		c-76.36-93-119.94-211.04-122.7-332.38l-2.32-101.94l2.32-101.94c2.76-121.35,46.34-239.39,122.7-332.38
		c76.33-92.96,182.5-157.32,298.94-181.22l82.48-16.93V353.07z"/>
	<path class="st1" d="M3456.25,453.69c-8.47,10.77-16.67,21.85-24.49,33.06l11.46,7.86c7.62-10.92,15.6-21.7,23.84-32.17
		L3456.25,453.69z"/>
	<path class="st1" d="M3394.08,547.07c-6.66,11.98-13.01,24.22-18.96,36.54l12.56,5.93c5.79-12,11.97-23.91,18.44-35.55
		L3394.08,547.07z"/>
	<path class="st1" d="M3347.54,649.2c-4.65,12.87-8.96,25.98-12.85,39.13l13.34,3.81c3.78-12.77,7.97-25.52,12.5-38.05
		L3347.54,649.2z"/>
	<polygon class="st1" points="3306.48,869.2 3305.51,909.92 3319.38,910.26 3320.35,869.68 	"/>
	<path class="st1" d="M3311.71,798.23l13.78,1.59c1.67-13.23,3.73-26.49,6.17-39.59l-13.6-2.71
		C3315.54,771.01,3313.42,784.64,3311.71,798.23z"/>
	<path class="st1" d="M3680.93,264.88l6.71,12.21c11.7-6.31,23.66-12.34,35.72-18l-5.76-12.7
		C3705.22,252.21,3692.93,258.4,3680.93,264.88z"/>
	<path class="st1" d="M3788.05,232.49c12.52-4.45,25.25-8.58,38.01-12.35l-3.78-13.43c-13.09,3.86-26.16,8.1-39.01,12.67
		L3788.05,232.49z"/>
	<polygon class="st1" points="3894.02,203.61 3933.71,195.83 3931.05,182.14 3891.25,189.93 	"/>
	<path class="st1" d="M3541.59,381.58l-9.33-10.33c-10.02,9.3-19.85,18.95-29.33,28.8l10.1,9.57
		C3522.27,400.03,3531.83,390.63,3541.59,381.58z"/>
	<path class="st1" d="M3586.7,325.55l8.5,11.03c10.61-8.05,21.51-15.84,32.55-23.28l-7.63-11.65
		C3608.79,309.27,3597.59,317.28,3586.7,325.55z"/>
	<polygon class="st1" points="3303.82,980.79 3303.36,999.98 3303.82,1019.33 3317.68,1019 3317.23,1000.06 3317.68,981.12 	"/>
	<path class="st1" d="M3619.94,1698.36l7.63-11.66c-11.03-7.43-21.92-15.23-32.52-23.27l-8.5,11.03
		C3597.44,1682.73,3608.63,1690.74,3619.94,1698.36z"/>
	<path class="st1" d="M3532.14,1628.76l9.33-10.33c-9.76-9.06-19.32-18.45-28.55-28.04l-10.1,9.57
		C3512.28,1609.79,3522.1,1619.44,3532.14,1628.76z"/>
	<polygon class="st1" points="3306.48,1130.68 3320.34,1130.23 3319.37,1089.64 3305.51,1089.97 	"/>
	<polygon class="st1" points="3893.75,1796.46 3890.96,1810.13 3930.77,1817.93 3933.43,1804.24 	"/>
	<path class="st1" d="M3466.97,1537.58c-8.23-10.47-16.21-21.25-23.83-32.17l-11.46,7.85c7.82,11.23,16.02,22.3,24.48,33.06
		L3466.97,1537.58z"/>
	<path class="st1" d="M3406.05,1446c-6.47-11.64-12.65-23.55-18.44-35.56l-12.56,5.92c5.94,12.32,12.28,24.56,18.95,36.55
		L3406.05,1446z"/>
	<path class="st1" d="M3360.47,1345.88c-4.52-12.53-8.71-25.29-12.49-38.08l-13.34,3.81c3.89,13.15,8.19,26.27,12.84,39.15
		L3360.47,1345.88z"/>
	<path class="st1" d="M3717.33,1753.6l5.77-12.69c-12.05-5.66-24-11.69-35.68-17.99l-6.72,12.21
		C3692.71,1741.6,3704.98,1747.79,3717.33,1753.6z"/>
	<path class="st1" d="M3331.62,1239.68c-2.44-13.12-4.5-26.38-6.16-39.59l-13.78,1.58c1.7,13.59,3.82,27.23,6.33,40.71
		L3331.62,1239.68z"/>
	<path class="st1" d="M3822,1793.32l3.79-13.43c-12.76-3.76-25.49-7.91-38.01-12.36l-4.79,13.1
		C3795.82,1785.2,3808.89,1789.45,3822,1793.32z"/>
</g>
</svg>
